<svg xmlns="http://www.w3.org/2000/svg" viewBox="0 0 1096.2 936.68"><defs><style>.cls-1{fill:#ffc25e;}.cls-1,.cls-10,.cls-11,.cls-12,.cls-13,.cls-14,.cls-15,.cls-16,.cls-17,.cls-2,.cls-3,.cls-4,.cls-5,.cls-6,.cls-7,.cls-8,.cls-9{stroke:#000;stroke-miterlimit:10;}.cls-2{fill:#e5ffd0;}.cls-3{fill:#f0ffd9;}.cls-4{fill:#f7ffc0;}.cls-5{fill:#f3ffb3;}.cls-6{fill:#fff6c6;}.cls-7{fill:#ffe8c8;}.cls-8{fill:#f9ffd9;}.cls-9{fill:#f1ffdb;}.cls-10{fill:#b3fbff;}.cls-11{fill:#f2ffd6;}.cls-12{fill:#ffcda5;}.cls-13{fill:#fcffd6;}.cls-14{fill:#fff1c6;}.cls-15{fill:#fcffc8;}.cls-16{fill:#ffc9ad;}.cls-17{fill:#fff3d9;}</style></defs><g id="Layer_1" data-name="Layer 1"><path class="cls-1" d="M403.46,719.32c-23.49,9.28-84,29.37-149.15,6.78C128.38,682.44,76.73,511,113.63,475.25c38.94-37.77,152.41,98.92,327.12,74.58,109.13-15.2,212-89.05,203.39-127.12-7.79-34.21-110.22-59.28-505.09-27.12" transform="translate(-28.38 67.55)"/><path class="cls-2" d="M659.39,634.58c-7,6-15.57.72-44.19,3.66a178.44,178.44,0,0,0-31.55,6.33s-17.49,4.13-32.73,12c-54.57,28.31-51.15,68.52-100,96.61-87.4,50.25-219.28,19.69-228.82-22C210,678,357.67,578.67,357.69,578.64s77.6-7.28,108.48-11.86a320.24,320.24,0,0,0,35.49-7.28A274.13,274.13,0,0,0,537,547.67c27.21-11.29,47.44-21.76,51.93-24.21,26.57-14.47,79.48-40.82,168.77-83.8C798.27,425,813.85,424.17,817,429.49c8.39,14.08-67.1,76.47-72.88,71.19-3.3-3,17-27,11.86-32.21-4.78-4.85-27.55,10.44-32.2,13.56-27.3,18.34-60.11,40.38-67.8,76.28C647.93,596,673.06,623,659.39,634.58Z" transform="translate(-28.38 67.55)"/><path class="cls-2" d="M461.08-56.95,444.14-67.12" transform="translate(-28.38 67.55)"/><path class="cls-2" d="M813.63-51.86" transform="translate(-28.38 67.55)"/><path class="cls-3" d="M668.66,648.38c-21.44-3.65-43.28-8.23-66.85-6.47" transform="translate(-28.38 67.55)"/><path class="cls-3" d="M833.24,427.8c-11.47-.3-7.29,58.61-56.92,126-47.27,64.16-111.17,92.31-107.51,94.48,5.57,3.3,158.5-58.7,178.36-152.15C854.66,460.87,841.77,428,833.24,427.8Z" transform="translate(-28.38 67.55)"/><path class="cls-4" d="M240.75,429.49c11.56-41.9,212.17-45.43,230.5,5.09,9.51,26.2-29.37,68.78-69.49,83.05C320.81,546.42,232.07,460.92,240.75,429.49Z" transform="translate(-28.38 67.55)"/><path class="cls-5" d="M505.15,404.07c11.87-9.42,74.06,35.12,67.8,57.62-2.69,9.69-17.89,14.66-28.81,13.56C511.53,472,494.69,412.37,505.15,404.07Z" transform="translate(-28.38 67.55)"/><path class="cls-6" d="M464.47,507.46c-4-7.28,4-20,11-26.49,2.35-2.17,12-11.06,24.59-9.11,15.16,2.35,26.76,19.11,23.73,28.82C518.79,516.68,471.75,520.59,464.47,507.46Z" transform="translate(-28.38 67.55)"/><path class="cls-7" d="M171.25,400.68c-17.8-1.91-45.87,2.19-50.84,16.95-6.34,18.81,24.29,56.72,55.93,52.54,21.83-2.88,43.23-25.68,39-44.07C210.52,405.3,175.46,401.13,171.25,400.68Z" transform="translate(-28.38 67.55)"/><path class="cls-8" d="M123.38,393.4c-9.91,4.53-26.58,13.85-35.54,29.81a51.32,51.32,0,0,0-3.44,7.48c-1.65,4.5-7.79,21.27,0,33.9,5.68,9.21,18,15,22,11.86,3.8-3-1.59-12.77-3.39-23.72C100.91,439.77,103,420.38,123.38,393.4Z" transform="translate(-28.38 67.55)"/><path class="cls-9" d="M140.75,382c.22,1.77,79.93-10.57,200-15.25,83.46-3.25,65.66,1.9,123.72-1.7,84.56-5.24,123.43-16.24,171.19,6.78,10.62,5.13,43.79,21.12,45.76,45.77,2.1,26.3-32.7,45.39-28.81,50.84,4.07,5.71,48.8-5.79,62.71-39,8.69-20.72,4-46.77-8.47-64.41-11.86-16.7-39.54-38.16-203.39-28.81C457.27,338.91,416.82,343,336,353.44,241.12,365.64,140.49,380.05,140.75,382Z" transform="translate(-28.38 67.55)"/><path class="cls-10" d="M374.64,715.93" transform="translate(-28.38 67.55)"/><path class="cls-11" d="M261.08,539.66c-38.6-19.4-72.23-41.45-113.55-47.46-5.67-.82-14.45-1.78-20.34,3.39-12,10.56-2.87,38.68,0,47.46,13.73,42.11,47.79,69.19,52.54,72.88,16.28,12.64,24.39,13.94,32.2,27.12,12.39,20.9,5.49,40.41,11.87,42.37,9,2.79,18.4-37.95,55.93-72.88,23.81-22.15,41.23-25.46,40.68-37.29S302,560.24,261.08,539.66Z" transform="translate(-28.38 67.55)"/></g><g id="b.g"><path class="cls-12" d="M28.88,177c-.57-12.87,842.4-189.49,954.24,35.59C1084.34,416.26,578,858.39,589.9,868.47,596.4,874,734.74,732,861.08,524.41c92.11-151.35,144.57-239,110.17-291.53-57-87.11-326-38.12-349.15-33.9-14.24,2.6-42.82,8.37-84.74,13.56A1208.68,1208.68,0,0,1,373,221.64s-101.75-1.4-240-25.78c-7.87-1.39-24.32-4.44-63-11.33C29.67,177.35,28.9,177.34,28.88,177Z" transform="translate(-28.38 67.55)"/><path class="cls-13" d="M973,141.36c20.37,1.81,32.91,21.15,39,30.5,4,6.18,20.4,31.45,11.87,57.63-2.8,8.58-9,19.43-13.56,18.65-6.4-1.1-.06-23.25-13.56-45.77-9.19-15.32-25.43-27.23-32.21-32.2-13-9.52-20.72-12-20.33-16.95C944.66,146.57,959.68,140.17,973,141.36Z" transform="translate(-28.38 67.55)"/><path class="cls-14" d="M1039.05,229.49c-4.35.6-7.55,6.85-8.47,11.87-1.91,10.33,5,19.6,6.78,22,21.26,29.67,23,93.93,30.5,93.22,7.73-.73,8.59-68.42-11.86-108.47C1053,242.33,1046,228.54,1039.05,229.49Z" transform="translate(-28.38 67.55)"/><path class="cls-15" d="M1001.76,121c7.08-3.08,16.25-5.57,23.73-1.7,20.09,10.4,11.55,58.21,18.43,59.23,5.47.81,8.47-29.82,27.33-60.92,25-41.22,56.12-47.45,52.55-61-4.33-16.45-55.34-27.35-86.44-5.08a60.92,60.92,0,0,0-18.65,22c-17.86,35.32,4.18,73.6,6.78,78" transform="translate(-28.38 67.55)"/><path class="cls-16" d="M39.05,199c325.05,53.9,513.44,38.89,628.81,10.17,32.48-8.08,157.95-41.84,244.07,18.65,12,8.41,46.16,32.42,45.76,66.1-.38,32.4-32.65,64.4-81.35,79.66" transform="translate(-28.38 67.55)"/><path class="cls-17" d="M1024.61,200.31" transform="translate(-28.38 67.55)"/></g></svg>